<?xml version="1.0" standalone="no"?>
<!DOCTYPE svg PUBLIC "-//W3C//DTD SVG 20010904//EN"
 "http://www.w3.org/TR/2001/REC-SVG-20010904/DTD/svg10.dtd">
<svg version="1.0" xmlns="http://www.w3.org/2000/svg"
 width="512.000000pt" height="512.000000pt" viewBox="0 0 512.000000 512.000000"
 preserveAspectRatio="xMidYMid meet">
<metadata>
Created by potrace 1.11, written by Peter Selinger 2001-2013
</metadata>
<g transform="translate(0.000000,512.000000) scale(0.100000,-0.100000)"
fill="#000000" stroke="none">
<path d="M2435 4545 c-145 -21 -344 -73 -425 -112 -100 -48 -179 -124 -214
-206 -42 -97 -37 -92 -99 -89 -67 4 -117 -18 -171 -78 -50 -56 -112 -186 -133
-280 -22 -101 -22 -282 1 -380 11 -47 21 -153 27 -280 5 -113 14 -230 20 -260
7 -30 12 -62 13 -70 3 -27 30 -90 39 -90 5 0 8 -60 7 -137 -2 -76 -2 -140 -1
-143 2 -3 4 -25 6 -50 2 -25 11 -81 20 -125 25 -126 28 -167 15 -175 -9 -5 -3
-12 16 -21 18 -9 33 -28 42 -54 120 -343 222 -490 507 -731 64 -54 187 -140
194 -135 2 1 7 -2 10 -7 7 -11 65 -42 89 -47 10 -3 35 -9 57 -15 65 -16 212
-10 279 12 61 20 177 75 186 88 3 4 21 15 40 25 83 41 232 150 306 222 119
117 211 253 303 445 15 31 29 48 41 48 13 0 16 6 12 25 -2 14 0 31 6 38 6 6
18 38 27 70 9 31 27 83 40 115 13 32 25 71 27 87 7 64 82 154 180 218 47 31
56 40 45 51 -6 8 -19 11 -27 8 -25 -9 -74 -45 -93 -69 -10 -13 -25 -30 -33
-37 -8 -8 -14 -18 -14 -23 0 -4 -9 -19 -20 -33 l-20 -25 0 23 c0 66 24 168 46
195 13 16 27 41 30 55 3 15 14 50 24 77 24 64 28 84 51 237 13 87 31 159 57
230 55 146 72 229 72 354 l0 106 60 58 c65 63 106 137 116 212 7 53 -8 71 -26
29 -32 -79 -120 -112 -196 -73 -46 23 -85 65 -203 215 -257 328 -492 454 -934
501 -172 19 -277 19 -402 1z m-170 -885 c39 -5 101 -12 140 -15 38 -4 78 -11
90 -15 48 -18 261 -32 531 -33 l289 -2 58 -32 c32 -18 70 -42 84 -52 13 -11
33 -23 42 -26 26 -8 94 -74 124 -120 34 -53 42 -92 69 -335 30 -276 29 -481
-4 -501 -10 -7 -11 -9 0 -9 7 0 11 -4 8 -8 -3 -5 -8 -47 -11 -93 -7 -111 -15
-158 -26 -165 -5 -3 -7 -10 -4 -15 4 -5 1 -9 -4 -9 -6 0 -11 -15 -11 -32 0
-18 -7 -46 -15 -62 -8 -15 -15 -38 -15 -50 0 -28 -46 -164 -61 -182 -6 -8 -9
-21 -5 -29 3 -9 2 -13 -4 -10 -6 3 -10 2 -10 -4 0 -16 -55 -93 -105 -147 -24
-27 -45 -53 -45 -57 0 -4 -18 -32 -41 -62 -22 -30 -42 -62 -43 -72 -2 -10 -8
-18 -13 -18 -18 0 -65 -56 -59 -71 3 -8 0 -11 -8 -8 -16 6 -88 -64 -80 -78 4
-7 2 -8 -4 -4 -7 4 -44 -17 -84 -46 -40 -29 -90 -64 -110 -78 -20 -13 -34 -29
-31 -34 3 -5 1 -6 -5 -2 -6 3 -39 -12 -73 -34 -34 -22 -65 -37 -70 -35 -4 3
-10 1 -14 -4 -5 -9 -62 -41 -72 -41 -2 0 -1 5 3 11 4 7 -1 7 -16 -1 -16 -8
-48 -10 -109 -5 -47 4 -94 7 -103 7 -10 -1 -20 4 -23 9 -4 5 -11 7 -16 4 -5
-4 -9 -2 -9 4 0 6 -7 8 -15 5 -8 -4 -15 -1 -15 6 0 6 -4 9 -9 6 -5 -3 -20 5
-34 18 -17 15 -28 20 -31 13 -2 -7 -5 -5 -5 3 -1 9 -16 24 -33 34 -18 10 -46
33 -63 50 -16 17 -51 50 -77 74 -26 23 -45 42 -42 42 3 0 -16 18 -41 40 -25
22 -44 40 -40 40 3 0 -7 12 -22 27 -16 16 -42 46 -58 68 -16 22 -32 42 -35 45
-3 3 -14 23 -25 45 -11 22 -24 45 -28 50 -4 6 -29 46 -54 90 -26 44 -50 82
-53 85 -3 3 -22 39 -43 80 -50 100 -81 201 -106 345 -19 111 -20 139 -12 375
8 235 10 261 34 335 15 44 28 89 30 100 2 11 9 40 16 65 8 25 14 50 15 55 2 6
8 28 14 50 6 22 14 55 17 74 3 19 21 67 40 108 37 79 125 178 170 189 14 3 25
10 25 14 0 8 58 25 130 39 45 9 86 7 215 -9z"/>
<path d="M2004 3151 c-46 -12 -162 -70 -190 -96 -25 -23 -34 -61 -11 -52 6 3
50 22 97 42 135 58 275 59 390 4 47 -23 86 -24 93 -4 9 22 -22 49 -93 80 -54
24 -81 29 -160 32 -52 1 -109 -2 -126 -6z"/>
<path d="M3102 3095 c-68 -16 -129 -44 -136 -61 -16 -41 23 -56 74 -29 16 8
63 20 104 27 123 19 235 -11 333 -89 36 -29 73 -43 73 -27 0 24 -66 96 -127
137 -81 55 -202 71 -321 42z"/>
<path d="M1887 2774 c-41 -16 -65 -30 -59 -36 5 -5 29 -1 58 10 60 24 156 35
204 24 l35 -8 -50 -7 c-28 -4 -61 -14 -73 -23 -36 -25 -71 -88 -77 -141 -5
-39 -2 -56 18 -93 21 -37 33 -47 68 -58 55 -16 132 -11 154 11 20 21 35 22 35
2 0 -21 13 -19 36 8 56 66 65 124 30 197 l-26 53 26 -24 c28 -26 58 -85 81
-159 l13 -45 -5 47 c-5 48 -48 145 -82 183 -10 11 -40 34 -68 50 -45 26 -60
30 -150 32 -88 3 -108 0 -168 -23z m181 -83 c18 -11 11 -51 -10 -65 -35 -22
-74 27 -48 59 14 17 38 19 58 6z"/>
<path d="M3150 2714 c-90 -14 -149 -49 -195 -114 -29 -42 -58 -110 -47 -110 4
0 14 15 20 34 15 40 101 136 123 136 10 0 8 -5 -7 -18 -46 -38 -64 -78 -64
-140 0 -45 5 -67 23 -92 24 -37 46 -45 141 -55 59 -7 64 -6 71 14 7 23 13 25
34 12 11 -7 10 -11 -5 -20 -16 -8 -16 -10 -3 -11 18 0 48 24 72 60 20 29 24
139 6 173 -28 53 -89 96 -143 98 -18 1 -18 2 5 9 53 16 187 -24 240 -71 34
-30 49 -36 49 -19 0 6 -5 10 -12 10 -6 0 -9 3 -5 6 7 8 -42 42 -96 67 -20 10
-63 22 -95 27 -58 10 -67 10 -112 4z m-32 -114 c19 -30 -1 -62 -36 -58 -19 2
-28 10 -30 26 -7 47 42 70 66 32z"/>
<path d="M2895 2470 c-3 -5 -1 -10 4 -10 6 0 11 5 11 10 0 6 -2 10 -4 10 -3 0
-8 -4 -11 -10z"/>
<path d="M2444 2023 c2 -10 7 -27 10 -38 19 -66 207 -92 266 -37 20 18 44 81
35 90 -2 2 -17 -12 -34 -31 -37 -41 -83 -52 -162 -37 -40 7 -61 18 -81 40 -31
34 -42 38 -34 13z"/>
<path d="M2116 1791 c-14 -22 74 -162 144 -230 93 -90 155 -120 243 -118 30 1
53 -1 50 -5 -4 -8 49 -12 136 -10 44 0 143 39 184 72 53 42 147 145 168 185
29 56 22 63 -65 64 -34 0 -119 8 -191 16 -71 9 -166 18 -210 20 -160 9 -455
13 -459 6z m375 -45 c234 -11 319 -22 319 -41 0 -8 -19 -14 -52 -18 -65 -6
-338 11 -352 22 -6 5 -32 12 -58 15 -31 5 -48 12 -48 21 0 10 9 13 29 10 15
-2 88 -6 162 -9z m34 -286 c7 -12 -2 -12 -30 0 -19 8 -19 9 2 9 12 1 25 -3 28
-9z m92 -6 c-3 -3 -12 -4 -19 -1 -8 3 -5 6 6 6 11 1 17 -2 13 -5z"/>
<path d="M2349 1377 c14 -15 29 -27 35 -27 5 0 22 -11 36 -25 20 -19 44 -27
105 -36 43 -6 97 -8 119 -5 37 5 114 39 174 77 39 25 23 27 -25 3 -27 -13 -55
-24 -65 -24 -9 0 -18 -4 -20 -9 -5 -14 -137 -33 -178 -26 -19 4 -44 12 -55 18
-11 6 -22 12 -25 12 -13 3 -68 31 -95 49 l-30 20 24 -27z"/>
<path d="M1322 2682 c7 -10 34 -37 61 -61 26 -24 47 -49 47 -55 0 -6 9 -22 20
-36 l20 -25 -11 34 c-30 87 -89 161 -130 161 -18 0 -18 -2 -7 -18z"/>
<path d="M1428 2353 c-10 -2 -18 -14 -18 -25 0 -21 0 -21 25 2 34 32 33 34 -7
23z"/>
<path d="M3766 2161 c10 -10 21 -14 23 -8 4 10 -17 27 -33 27 -5 0 -1 -8 10
-19z"/>
<path d="M1415 2160 c6 -10 4 -12 -8 -7 -9 3 -18 3 -21 -1 -3 -4 4 -8 14 -9
23 -2 35 13 19 23 -8 5 -9 3 -4 -6z"/>
<path d="M1410 2117 c0 -7 7 -22 15 -33 12 -16 14 -17 15 -2 0 23 -11 48 -21
48 -5 0 -9 -6 -9 -13z"/>
</g>
</svg>
